<svg width="17" height="16" viewBox="0 0 17 16" fill="none" xmlns="http://www.w3.org/2000/svg">
<path d="M7.02036 1.23748C7.54846 -0.387848 9.84787 -0.387847 10.376 1.23748L11.0746 3.38771C11.3108 4.11458 11.9881 4.60671 12.7524 4.60671H15.0133C16.7223 4.60671 17.4328 6.79357 16.0502 7.79808L14.2212 9.127C13.6028 9.57623 13.3441 10.3725 13.5803 11.0994L14.2789 13.2496C14.807 14.8749 12.9468 16.2265 11.5642 15.222L9.7351 13.8931C9.11679 13.4438 8.27953 13.4438 7.66122 13.8931L5.83213 15.222C4.44954 16.2265 2.58928 14.8749 3.11738 13.2496L3.81603 11.0994C4.05221 10.3725 3.79348 9.57623 3.17517 9.127L1.34608 7.79808C-0.0365119 6.79357 0.674044 4.60671 2.38302 4.60671H4.6439C5.40818 4.60671 6.08553 4.11458 6.32171 3.38771L7.02036 1.23748Z" fill="#FF8A00"/>
</svg>
